<?xml version="1.0" encoding="utf-8"?>
<!-- Generator: Adobe Illustrator 21.0.0, SVG Export Plug-In . SVG Version: 6.00 Build 0)  -->
<svg version="1.1" id="Layer_1" xmlns="http://www.w3.org/2000/svg" xmlns:xlink="http://www.w3.org/1999/xlink" x="0px" y="0px"
	 viewBox="0 0 595 285.9" style="enable-background:new 0 0 595 285.9;" xml:space="preserve">
<g>
	<path d="M584.8,149.4c-3.4-0.4-6.7-0.9-10.1-1.2c-1.7-0.1-3.5,0-5.2,0.5c-5.5,1.9-11,4-16.6,6.1c-6.1,2.3-12.2,4.7-18.5,6.9
		c-3.7,1.2-7.4,1.3-10.6-0.7c-1.2-0.7-2.3-1.8-3-2.9c-0.8-1.2-1.6-1.3-2.9-0.7c-2.7,1.2-5.4,2.2-8,3.5c-8.1,4.1-16.2,8.3-24.5,12.4
		c-3.3,1.6-6.6,3.3-10.4,3.3c-2.5,0-4.8-0.4-6.5-2c-1.9-1.8-2.1-5.3-0.3-7.7c3.3-4.1,6.8-8.1,10.1-12.1c0.3-0.3,0.5-0.7,0.7-1.1
		c-0.5,0.1-1.1,0.1-1.5,0.3c-7.1,4.3-14.3,8.7-21.4,13.2c-5.7,3.6-11.2,7.5-16.8,11.4c-9.5,6.6-19.1,13.3-28.9,20
		c-7.3,5-14.7,10.2-22.4,15.1c-5.8,3.7-11.8,7.3-18.1,10.5c-6,3.2-12.4,5.6-19.3,5.9c-8.1,0.3-12.8-2.5-14.3-8.3
		c-0.9-3.3-0.2-6.9,1.1-10.4c0.4-1.1,0.7-2.1,1-3.2c0.1-0.4,0-0.8,0.1-1.2c-0.5,0.2-1,0.2-1.4,0.5c-2,1.2-4,2.7-6.1,3.8
		c-5.1,2.5-10.3,5.2-15.7,7.2c-4.7,1.7-8.5-0.9-7.8-4.6c0.2-1.2,0.9-2.1,2.3-2.8c5-2.4,10.1-4.7,14.9-7.5c5.2-3,10.1-6.3,15-9.6
		c3.7-2.4,7.4-4.9,11-7.5c1-0.7,1.9-1.7,2.6-2.7c2.3-3.2,4.3-6.6,6.7-9.7c5-6.3,10.1-12.5,15.1-18.6c3.4-4.1,6.7-8.2,10.2-12.1
		c3.9-4.3,8-8.5,12-12.7c2.9-3,5.7-6.1,8.6-9.1c3.7-3.9,7.4-7.8,11.2-11.5c6.8-6.6,13.5-13.2,20.3-19.6c2.7-2.5,5.4-5,8.2-7.4
		c8.5-7.2,16.8-14.5,25.3-21.3c7.4-5.9,15.1-11.3,22.6-16.7c7.4-5.2,14.9-10.2,22.3-15.1c3.2-2.1,6.7-3.9,10-5.8
		c0.7-0.4,1.4-1,2.1-1.4c3.4-1.9,6.7-3.8,10-5.5c7.6-4,15.1-7.8,23-10.9c3.7-1.4,7.4-2.8,11.1-3.9c1.6-0.4,3.4,0,5.2,0
		c0.6,0,1.3,0,1.9,0.2c2.4,0.8,4,3.2,4.3,5.8c0.3,2.7-0.9,5-2.1,7.3c-2.8,5.4-6.7,10.3-11.1,14.8c-5.6,5.8-11.3,11.6-17.3,17.2
		c-5.8,5.3-12,10.4-18.3,15.5c-7.5,6-15.2,11.9-23,17.9c-5.4,4.1-11,8.1-16.5,12.2c-4.9,3.6-9.8,7.3-14.8,10.9
		c-3,2.2-6.2,4.2-9.2,6.4c-3.2,2.3-6.4,4.7-9.7,7.1c-4.4,3.2-9,6.4-13.5,9.7c-3.9,2.9-7.8,5.9-11.8,8.9c-4.4,3.3-8.9,6.5-13.4,9.8
		c-6.9,5-13.9,10.2-20.9,15.3c-7.6,5.6-15.3,11.2-23.2,16.9c-5.9,4.3-12,8.6-18,13c-0.9,0.7-1.5,1.7-2,2.6
		c-2.6,4.6-5.3,9.1-7.5,13.8c-1.5,3.3-2.5,6.7-3.3,10.1c-0.6,2.4,0.5,3.2,3.4,3c3.7-0.2,7.2-1.5,10.5-3.2c5.6-2.8,11.1-5.7,16.4-8.9
		c5.1-3,9.8-6.4,14.7-9.6c3.2-2.1,6.5-4.2,9.7-6.4c4.6-3.1,9.2-6.2,13.8-9.4c6.4-4.4,12.7-9,19.1-13.3c5.9-4,11.9-7.9,17.8-11.7
		c3.9-2.5,7.8-5.1,11.8-7.4c7.7-4.5,15.2-9,23.4-12.2c2.6-1,5.2-1.4,7.9-1c1.8,0.3,2.4,1.7,3,3.1c0.5,1.2,0.3,2.4-0.4,3.7
		c-3,5.7-7.6,10.3-12.2,15.1c-1,1-1.9,2-2.9,3c-0.2,0.2-0.3,0.6-0.5,0.9c0.4-0.1,0.7-0.1,1.1-0.2c3.6-1.8,7-3.7,10.6-5.3
		c7.1-3.3,14.1-7,21.5-9.2c2.6-0.8,5.2-0.9,7.6,0c2,0.7,3.2,2.2,3.8,4.1c0.3,1.1,0.9,1.1,1.9,0.9c6.5-1.2,12.3-4.1,18.3-6.5
		c6-2.4,12-5,18.1-6.6c4.1-1.1,7.9-0.5,11.8,0.3c4.1,0.8,8.3,1.1,12.4,1.7c1,0.1,2.2,0.4,2.7,1.1c0.9,1.3,0,2.5-1.8,3.5
		c-2.1,1.1-4.2,1.4-6.4,1.4C584.9,149.2,584.8,149.3,584.8,149.4z M575.3,8.1c-0.4,0-0.7,0.1-1.1,0.1c-5.2,0.5-9.9,2.3-14.5,4.5
		c-6.1,2.9-12.2,6-18.3,9.3c-4.8,2.6-9.6,5.3-14.2,8.3c-5.8,3.7-11.6,7.6-17.3,11.5c-4.5,3.1-9,6.2-13.4,9.6
		c-8.1,6.2-16.4,12.6-24.5,19.2c-6.3,5.1-12.6,10.4-18.6,16c-8.9,8.2-17.6,16.7-26.4,25.4c-6.6,6.6-13,13.6-19.5,20.6
		c-5.7,6.2-11.4,12.5-17,19c-4.3,5-8.5,10.2-12.7,15.4c-0.2,0.3-0.4,0.7-0.6,1c0.4-0.2,0.9-0.3,1.2-0.5c4-2.8,7.9-5.6,11.8-8.4
		c5.2-3.7,10.3-7.5,15.4-11.1c7.4-5.3,14.7-10.4,21.9-15.5c5.4-3.8,10.7-7.6,16-11.3c3.5-2.4,7.1-4.8,10.6-7.2
		c2.3-1.5,4.6-2.9,6.9-4.4c3.1-2.1,6.2-4.3,9.3-6.5c3.6-2.5,7.1-5,10.6-7.5c4.5-3.2,9-6.3,13.4-9.5c5.2-3.8,10.3-7.7,15.4-11.6
		c3.5-2.6,7-5.3,10.5-7.9c3.1-2.4,6.1-4.9,9.2-7.3c2.5-2,5.1-4,7.5-6.1c4.8-4.3,9.6-8.6,14.2-13c3.3-3.1,6.6-6.1,9.6-9.4
		c3.8-4.2,7.3-8.7,11-13c2.2-2.5,3.8-5.3,4.8-8.4C576.6,8.3,576.2,8.1,575.3,8.1z"/>
	<g>
		<path d="M272.5,35.9c-13.7-0.1-27.8,1-42.1,3.5c-7.6,1.3-15.4,2.8-23.1,4.7c-13.3,3.3-26.5,7.4-39.8,12
			c-13.4,4.7-26.5,10.3-39.4,16.5C112.3,80.3,97,88.8,82.7,98.6c-6.9,4.8-13.2,9.9-19.2,15.2c-5.5,4.9-10.6,10-14.8,15.4
			c-4.2,5.4-6.8,10.9-7.7,16.4c-0.4,2.2-1.4,4.5-5.1,5.9c-3.8,1.4-10.5,1.1-9.7-2.5c1-4.3,2.2-8.7,4.4-13c2.3-4.5,5.2-9,8.8-13.3
			c4.3-5,9-9.9,14.5-14.4c6.9-5.5,13.6-11.1,21.7-15.8c4.3-2.5,8-5.4,12.2-7.8c7.4-4.3,14.8-8.4,22.4-12.3
			c6.7-3.4,13.8-6.5,20.7-9.5c2.8-1.2,5.9-2.1,8.7-3.2c2.3-0.9,4.4-2.1,6.6-3c14.2-5.9,28.7-10.5,43.2-14.5c5.9-1.6,11.8-3,17.7-4.5
			c9-2.3,18-3.9,26.9-5c7-0.9,13.9-1.7,20.8-2.1c6.1-0.4,12.1-0.2,18.1-0.2c11.1-0.1,21.6,1.3,31.4,3.6c7.3,1.7,14,4.1,19.6,7.6
			c4.2,2.6,7.7,5.7,10.4,9.3c2.1,2.9,4.3,5.9,5.8,9c2.1,4.4,2.6,9.4,2.5,14.4c-0.1,5.8-1.6,11.6-4,17.4c-4.2,10-11.2,19.4-20.4,28.2
			c-4.4,4.2-8.6,8.6-13.4,12.6c-6.4,5.3-13.1,10.5-20.1,15.6c-7.7,5.6-15.7,10.9-23.8,16.4c-3.3,2.2-6.8,4.3-10.3,6.4
			c-1.2,0.7-1.4,1.2-0.9,2c2.5,3.9,1.2,8.4-1.1,13.1c-0.5,1-0.6,2.1-0.9,3.1c1.2-0.3,2.5-0.5,3.7-1c5-2.1,10-4.3,15-6.4
			c6.2-2.7,12.3-5.5,18.5-8c2.4-1,5.2-1.6,7.5-1.7c3.3,0,6.2,0.8,6.9,3.6c0.7,2.8,0.8,2.8,4.9,1.8c3.3-0.8,6.6-1.7,9.9-2.5
			c1.3-0.3,2.6-0.3,4-0.5c0.7-0.1,1.6-0.3,2.3-0.6c2.6-1.5,4.9-3,8.1-3.2c1.5-0.1,3.3-1.3,5-2c3.5-1.4,5.2-1.4,6.3,1.1
			c0.5,1.1,0.1,2.3-1.3,3.3c-1.4,1-2.9,1.8-4.4,2.7c-0.3,0.2-0.6,0.5-0.9,0.7c0.3,0.1,0.6,0.1,0.9,0.2c1.4,0.1,2.8,0.2,4.2,0.4
			c1.8,0.3,1.6,1.7,1.3,2.9c-0.2,1.4-1.6,2.1-3,2.7c-1,0.5-2.1,1-3,1.7c-2.1,1.4-4.5,1.8-6.8,2.1c-3.2,0.4-6.2,0.4-8.3-1.4
			c-0.7-0.6-2.3-0.5-3.3-0.9c-0.8-0.3-1.5-0.6-2-1.1c-0.6-0.5-1.1-0.6-2.3-0.2c-3,1.1-6.1,2.3-9.1,2.9c-6,1.1-9.9-0.6-11.7-4.4
			c-0.4-1-1.2-0.9-2.4-0.5c-5.9,1.8-11.5,4.5-17.1,7.3c-6.1,3-12.3,6-18.6,8.9c-6.1,2.7-13.5,1.9-15.8-1.4c-1.8-2.8-0.9-6,0.7-9.3
			c1.1-2.3,1.8-4.5,2.7-6.8c0.1-0.3-0.1-0.7-0.2-1c-0.5,0.2-1.1,0.3-1.6,0.6c-10.2,6-20.4,12.3-31,18.3
			c-10.2,5.9-20.7,11.6-31.3,17.4c-8.9,4.9-17.9,9.9-27.1,14.8c-7.4,4-15,7.9-22.7,11.8c-10.8,5.5-21.7,11.1-32.9,16.4
			c-15.7,7.3-31.9,14.2-49,19.3c-8,2.4-16.1,4.6-23.7,4.5c-3.2-0.1-6.8-0.4-8.8-1.6c-2-1.2-3.2-3.3-1.5-6.2c1.3-2.1,1.8-4.2,3-6.2
			c2.4-4.2,6.9-7.9,11.1-11.6c7.9-6.9,17.2-13,26.3-18.8c7.7-4.9,16-9.2,24.1-13.7c5.6-3.1,11.2-6.2,17-8.9
			c10.8-5.1,21.5-10.1,32.3-14.7c8.5-3.6,17.2-6.6,25.7-9.7c6.8-2.5,13.6-4.8,20.4-7c9.7-3.2,19.4-6.2,29.1-8.2
			c4.9-1,9.8-2.4,14.7-3.4c7.9-1.5,15.6-2.5,23.1-2.4c0.5,0,1.2-0.3,1.6-0.5c7.7-4.8,15.4-9.5,22.8-14.3c7.3-4.8,14.4-9.8,21.3-14.7
			c4.5-3.2,8.9-6.4,13-9.8c4.4-3.6,8.8-7.4,12.7-11.2c6.1-6.1,12.2-12.1,16.4-18.8c2.4-3.8,4.6-7.7,6.3-11.6
			c4.4-10.4,4.9-20.3,0.4-29.3c-2.5-5.1-6.8-9.2-12.5-12.4c-10.4-5.8-23.1-8.4-37.1-9.3c-1.6-0.1-3.1-0.2-4.7-0.3
			C275.6,36,274.1,36,272.5,35.9z M29.7,270.8c0.2,0,1.1-0.1,1.9-0.4c7.9-2.4,15.8-4.2,23.3-7.2c10.8-4.2,21.7-8.1,31.9-13.2
			c6.8-3.4,13.8-6.4,20.5-9.6c5.2-2.5,10.1-5.2,15.2-7.8c1.4-0.7,2.8-1.5,4.2-2.3c5.3-2.7,10.6-5.3,15.8-8c3.5-1.8,6.8-3.8,10.2-5.6
			c6.7-3.6,13.5-7.2,20.1-10.8c4.8-2.6,9.5-5.3,14.3-7.9c1.2-0.6,2.6-0.9,3.7-1.6c2.5-1.5,4.8-3.1,7.2-4.6
			c7.6-4.4,15.2-8.8,22.6-13.1c0.3-0.2,0.5-0.5,0.8-0.7c-0.4-0.1-0.7-0.2-1.1-0.2c-1.2,0.1-2.3,0.3-3.5,0.5
			c-10.7,1.8-21.4,4.7-32.2,7.9c-14.2,4.1-28.4,9.3-42.7,14.9c-21.8,8.4-43.4,18.4-64.6,30.2c-12.5,7-24.8,14.6-35.9,23.2
			c-5.5,4.3-10.9,8.7-14.6,13.7C25,270.9,25.3,271.2,29.7,270.8z"/>
		<path d="M78.2,142.8c-2.4,6.5-4.8,13.1-7.1,19.7c-2.8,7.9-5.4,15.9-8.5,23.9c-3.6,9.1-7.8,18.3-11.6,27.6
			c-1.3,3.2-2.2,6.4-3.3,9.6c-0.3,0.8-0.4,1.5-0.7,2.3c-0.8,2.2-2.6,3.3-5.7,3.6c-4.7,0.5-6.2-0.3-6.6-3.3c-0.9-6,1.8-12.4,4.7-18.8
			c1.3-2.8,2.5-5.6,3.6-8.4c2.8-6.6,5.7-13.3,8.2-19.8c3.4-9.3,6.4-18.6,9.6-27.8c1.3-3.6,2.3-7.2,3.9-10.8c0.6-1.5,2.2-3,3.6-4.3
			c0.5-0.5,2-0.7,3-0.9c4.7-0.7,8.2,1.6,7.3,4.7c-0.3,1-0.7,1.9-1.1,2.9C77.8,142.8,78,142.8,78.2,142.8z"/>
	</g>
</g>
</svg>
